<svg xmlns="http://www.w3.org/2000/svg" viewBox="0 0 274.48 148.27"><title>logo</title><g id="Layer_2" data-name="Layer 2"><g id="Layer_2-2" data-name="Layer 2"><path d="M30,26.14c-5.43.12-8.34.49-8.76,1.11a1,1,0,0,0-.18.58,4.53,4.53,0,0,0,1.6,2.66c.42.42,1.88,1.77,4.4,4.05q3.47,3.15,5.56,5.33,5.91,6.32,5.91,10.35a5.93,5.93,0,0,1-.09,1.07,12,12,0,0,1-4.53,7.24,13.9,13.9,0,0,1-8,3q-3.56.23-6.45.23Q5.24,61.78,2,60q-2-1.06-2-4.44a11.44,11.44,0,0,1,1.47-5.69q.84-1.51,7.15-1.51h8a21.69,21.69,0,0,0,3.73-.23q2-.39,2.13-1.77v-.09c0-1.1-1.36-2.56-4.09-4.4-.86-.56-2-1.25-3.29-2s-2.13-1.25-2.31-1.37Q2.67,31.82.76,24.14a13.77,13.77,0,0,1-.45-3.47q0-6.84,6.89-13.51,4.21-4.08,14.44-6A39.69,39.69,0,0,1,28.57.45q5.25,0,7.87,2.14,4.44,3.56,5.11,12.31c.09,1.06.13,2.06.13,3q0,5.52-2,7.11C38.84,25.63,35.62,26,30,26.14ZM4.09,52.62a2.73,2.73,0,0,1,2.13-.84,2.65,2.65,0,0,0-1.47-.53,1.82,1.82,0,0,0-1.11.4,1.73,1.73,0,0,0-.71,1.46,3.62,3.62,0,0,0,.27,1.25A6.9,6.9,0,0,1,4.09,52.62ZM5.15,16.76A23.74,23.74,0,0,1,6.93,13.3Q10.05,8.73,17.6,6.1c.2-.06,1.48-.39,3.82-1A11.76,11.76,0,0,0,24.53,4c-.3,0-.61,0-.93,0A25.53,25.53,0,0,0,17.46,5a27.85,27.85,0,0,0-7.28,2.84,16.89,16.89,0,0,0-5.25,5.74,9.17,9.17,0,0,0-1.6,4.31,2.37,2.37,0,0,0,.4,1.42A10.85,10.85,0,0,0,5.15,16.76ZM18.66,50.85a2.59,2.59,0,0,0,1.51.44,5.93,5.93,0,0,0,2.49-.67,3.23,3.23,0,0,0,2.27-3.06,5.41,5.41,0,0,0-.22-1.43,5.84,5.84,0,0,1-1.6,3,5.23,5.23,0,0,1-3.91,1.73A3.27,3.27,0,0,1,18.66,50.85Z"/><path d="M47.72,49.65c0-.69,0-1.41.09-2.18q.09-1.65,1.6-9.73,1.52-9.47,1.91-11.82,1.11-6.18,2-10.31c.47-2.08,1-4.06,1.51-6A30.15,30.15,0,0,1,56.3,5.43c1.24-2.75,3-4.34,5.33-4.75a5.41,5.41,0,0,1,1-.09c2,0,3.76,1,5.33,3Q70.75,7.17,74,15.25,78.65,26.5,80,29c.74,1.45,1.3,2.17,1.68,2.17a.27.27,0,0,0,.23-.13,31.29,31.29,0,0,0,1-3.51q.22-.93,1.29-5.51.93-4.05,1.64-6.58,2.31-8.09,5-10.79a10.36,10.36,0,0,1,7.47-3.29h.09q4.62.09,6.4,4.66,2.13,5.52,5.68,23.82t3.56,24.35v.27a6,6,0,0,1-2.53,4.75,13.8,13.8,0,0,1-5.34,2.49,13.63,13.63,0,0,1-3.6.49q-1,0-1.95-.09a6.42,6.42,0,0,1-5-3.55c-.62-1.07-1.12-3.39-1.51-7-.38-2.9-.67-4.92-.84-6s-.33-1.69-.45-1.69A18.26,18.26,0,0,0,91.49,47q-3.85,9.87-10,9.87a4.46,4.46,0,0,1-.63,0q-6.21-.53-10-11.59c-.3-1.93-.52-2.91-.67-2.94s-.41,1-.71,2.89Q68,54,67.54,55s0,0,0,0a10.6,10.6,0,0,1-7.47,6.76c-.53,0-1.06,0-1.6,0a12.8,12.8,0,0,1-8.44-3.91Q47.72,55.47,47.72,49.65Zm11-39.55a12.33,12.33,0,0,1,.94-2.27A11,11,0,0,1,61.37,6a4.85,4.85,0,0,0,1.33-1.6,2.32,2.32,0,0,0-1-.22,2.53,2.53,0,0,0-1.33.4,4.14,4.14,0,0,0-1.6,1.82,13.88,13.88,0,0,0-.93,5.82A10.34,10.34,0,0,0,58.74,10.1ZM83.1,34.45c1.65,0,3-2.46,4.08-7.38q.18-.88.94-5.11c.44-2.34.84-4.23,1.2-5.69Q91,9.52,94.12,6.81a12.61,12.61,0,0,1,1.82-.89c.83-.36,1.26-.71,1.29-1.07a1.81,1.81,0,0,0-1-.31,4.49,4.49,0,0,0-2.08.71,8.22,8.22,0,0,0-3.2,3.47c-1,1.95-2.21,6.15-3.6,12.57q-1.92,9-3.07,10.49a6.6,6.6,0,0,1-1.51,1.29.89.89,0,0,0-.4.8,2.12,2.12,0,0,0,0,.44A2,2,0,0,0,83.1,34.45Z"/><path d="M168.15,15.07a38.93,38.93,0,0,1,3,14.22v1.07a40.27,40.27,0,0,1-2.26,13.55,28.12,28.12,0,0,1-7.56,11.78,22.55,22.55,0,0,1-14.79,5.82h-.89q-8.53,0-13.73-5.64a41.48,41.48,0,0,1-10.71-22.76,39.2,39.2,0,0,1-.4-5.55,30.13,30.13,0,0,1,6-18.53q5-6.66,16-8.13a35.49,35.49,0,0,1,4.62-.31c5.12,0,9.38,1.26,12.75,3.77A25.33,25.33,0,0,1,168.15,15.07Zm-42.71,5.56a40.93,40.93,0,0,1,1.47-4.45q2.58-6.07,9.51-9.59a26.65,26.65,0,0,1,4-1.43A15.54,15.54,0,0,0,143.8,4q-8.9,0-14.27,5.51t-5.38,14.45A11.61,11.61,0,0,0,125.44,20.63ZM138.77,30A10.89,10.89,0,0,0,137,35.56a9.41,9.41,0,0,0,3.2,6.75,6.6,6.6,0,0,0,4.62,2.27,5.23,5.23,0,0,0,.94-.09c1.89-.32,3.39-1.64,4.48-4a14.08,14.08,0,0,0,1.51-6.09,10.91,10.91,0,0,0-.62-3.69q-1.86-5.37-5.82-5.42T138.77,30Zm13.69,14a13.17,13.17,0,0,0,2.27-7.65c-.06.06-.6,1.23-1.6,3.51a13.53,13.53,0,0,1-4.45,5.51,13.25,13.25,0,0,0-2.84,2.31A7.71,7.71,0,0,0,152.46,44.05Z"/><path d="M224.94,12.85a24.72,24.72,0,0,1-5.6,9.38Q211,31.61,201.43,34.45q9.06,2.17,14.13,6.66,5.82,5.12,7.95,8.89,3.39,6-1.51,9.69a9.47,9.47,0,0,1-9.19,1.15,24.62,24.62,0,0,1-8.36-5.33,44.61,44.61,0,0,1-5.82-7c-.21.72-.52,2.39-.93,5a20.56,20.56,0,0,1-1.43,4.93,6.5,6.5,0,0,1-3.11,3.2,7.16,7.16,0,0,1-4.13.66,8,8,0,0,1-3.95-1.55,6.36,6.36,0,0,1-2.4-3.42q-1.34-4.8-2-18.53a146.18,146.18,0,0,1,.62-25.33q1-7.29,4.89-10.89A8.66,8.66,0,0,1,194,.14q5.52,1,6.58,6.13c.3,1.4.38,6,.27,13.69.2-.29.65-1,1.33-2.18.86-1.48,1.55-2.65,2.09-3.51A66.9,66.9,0,0,1,210.09,6q8.44-9.91,13.47-2.58A11,11,0,0,1,224.94,12.85ZM186.19,8.5a15.09,15.09,0,0,1,4.26-4.45c-1-.71-2.15-.28-3.51,1.29a10.66,10.66,0,0,0-2.4,5.78A28,28,0,0,0,186.19,8.5Zm24.53.31c-.8,1-1.8,2.44-3,4.22s-1.87,2.74-2.13,3.07c.08-.09-.69.6-2.31,2.08-1,.95-1.38,1.62-1,2,.71.77,2.28-.54,4.71-3.95q5.21-7.25,6.18-8.18c2.49-2.52,3.73-3.8,3.73-3.86Q214.76,3.56,210.72,8.81Z"/><path d="M263.55,29.43a11.06,11.06,0,0,1,3.64.71,3,3,0,0,1,2,2.8v.35a5.08,5.08,0,0,1-4,5.38,28.56,28.56,0,0,1-4,.67c-1.9.23-3.23.44-4,.62A2.48,2.48,0,0,0,255,42.45v1c.12.71.92,1.18,2.4,1.42a8.63,8.63,0,0,0,1,0c.47,0,1,0,1.68,0,1,0,1.9,0,2.58,0h.85c2.75.14,4.22,1,4.39,2.48a19.48,19.48,0,0,1,.14,2.23,10.42,10.42,0,0,1-6.71,10.26Q256.62,62,248.13,62c-.74,0-1.5,0-2.27,0q-8.18-.22-10.88-12.4-1.38-6.09-1.38-18.75v-2q0-5,.35-8,.81-8.49,4.18-12.57T249.6,1.43a22.35,22.35,0,0,1,6.84-.89c1,0,2.13,0,3.29.14q6.66.39,10.17,2.31a8.85,8.85,0,0,1,3.87,5.2,12.86,12.86,0,0,1,.71,4.13,12.53,12.53,0,0,1-.71,4.09c-1,2.87-2.41,4.8-4.13,5.77a7.45,7.45,0,0,1-3.78.89,15.67,15.67,0,0,1-3.11-.35,17.34,17.34,0,0,0-3.78-.54,3.52,3.52,0,0,0-1.86.4,3.27,3.27,0,0,0-1.51,2.94,3.3,3.3,0,0,0,.71,2.35Q257.42,29,263.55,29.43ZM237.91,18a28,28,0,0,1,1.15-3.82c1.52-3.49,4.4-6.13,8.67-7.91.18-.09,1.25-.47,3.2-1.15a22.34,22.34,0,0,0,2.8-1.16,20.15,20.15,0,0,0-12.35,4.31q-4.32,3.19-4.31,12.4A9.36,9.36,0,0,0,237.91,18Z"/><path d="M6,80.2a31.86,31.86,0,0,1,10.51-1.71,42.8,42.8,0,0,1,8.3.86,35.47,35.47,0,0,1,16.35,7.59q6.07,5.24,6.08,11.42a12.43,12.43,0,0,1-.1,1.61Q46,108.12,34.57,115.46a28,28,0,0,1-4.93,2.16,2.57,2.57,0,0,1,.55-.05q1.71,0,6.74,2,7.55,3,8.35,8.35a9.94,9.94,0,0,1,.1,1.46q0,3.87-3.42,7.65a27.27,27.27,0,0,1-11.06,7,42.12,42.12,0,0,1-14.59,2.66A42.21,42.21,0,0,1,6,145.43,2,2,0,0,1,4.49,144q-.09-.41-.25-29.73V102.38q0-18.4.25-19.91A2.8,2.8,0,0,1,6,80.2Zm6.19,2.37a2.63,2.63,0,0,0-1.61-.45,7.63,7.63,0,0,0-2.21.4,1.79,1.79,0,0,0-1.26,1.2c0,.17-.09,1-.15,2.42A8.72,8.72,0,0,1,12.14,82.57ZM24.91,124a4.07,4.07,0,0,0-1.86-.55q-1.66,0-2.31,2.31a6.56,6.56,0,0,0-.2,1.66,7.86,7.86,0,0,0,.05,1,2.81,2.81,0,0,0,.9,1.87,4.56,4.56,0,0,0,1.56.25,12,12,0,0,0,2.21-.25c2-.37,3-1.23,3-2.57v0C28.05,126.07,26.92,124.86,24.91,124ZM21,108.77c.17.54.65.86,1.46,1,.63.06,1.26.1,1.86.1a12.81,12.81,0,0,0,4.58-.76q2.81-1,2.81-3.47a5.89,5.89,0,0,0-.2-1.46c-.8-3-3.29-4.42-7.44-4.42h-1a2.28,2.28,0,0,0-2.41,2.11V104q.15,2,.15,2.67A8.13,8.13,0,0,0,21,108.77Zm4,23.74a8.38,8.38,0,0,0,2.87.6,3.91,3.91,0,0,0,2.51-.8,2.52,2.52,0,0,0,1.06-2.11,5.56,5.56,0,0,0-.85-2.67A4.8,4.8,0,0,1,29.24,131,9.19,9.19,0,0,1,25,132.51Zm1.86-20.42a14.55,14.55,0,0,0,1.66.1A7.28,7.28,0,0,0,33,111a3.84,3.84,0,0,0,1.61-3.32,7.78,7.78,0,0,0-.3-2Q32.5,110.64,26.87,112.09Z"/><path d="M66,148.05q-4.72,0-5.58-2.36-1.66-4.58-2-30.43-.1-5-.11-9.2,0-16.8,1.31-20.68,2-6,10.21-7a30.64,30.64,0,0,1,3.47-.2A32.16,32.16,0,0,1,83.1,79.8q8.7,2.82,14.38,13a34.54,34.54,0,0,1,4.73,16.9c0,.8,0,1.59-.1,2.36a19.88,19.88,0,0,1-5.23,12A17.33,17.33,0,0,1,93,127.2c-1.11.59-2.4,1.2-3.88,1.84a3.54,3.54,0,0,0-1.35.8.39.39,0,0,0,0,.2c0,.27.23.61.7,1q1.16,1,4.53,4.68t4.67,4.73C99.18,141.8,100,143,100,144a1.76,1.76,0,0,1-.3,1q-1.71,2.63-8.76,2.77h-.55c-3.39,0-5.87-.61-7.44-1.81q0-.21-6.09-9.86c-.94-1.68-1.69-2.52-2.26-2.52a.18.18,0,0,0-.15.06c-.4.1-.61.87-.61,2.31v.8c0,.44.06,1.46.06,3.07q0,5.34-1.46,6.64Q70.53,148,66,148.05ZM63.18,88.3a7.22,7.22,0,0,1,2.12-3.37A13.2,13.2,0,0,1,69,82.82a5.45,5.45,0,0,1,1-.35l.2-.66c-2.91,0-5,.59-6.13,1.76s-1.81,3.24-1.81,6.19A1.82,1.82,0,0,0,63.18,88.3Zm9.76,20.22v.35q0,4.48,3,4.48a6.72,6.72,0,0,0,2.21-.45q5.58-2,5.73-5.89v-.1c0-1.54-.92-2.72-2.76-3.52a13.63,13.63,0,0,0-4.93-.91H76a2.53,2.53,0,0,0-2.72,1.66A22.94,22.94,0,0,0,72.94,108.52Zm11.87,5.08q2.31-2.31,2.31-4.23a3.08,3.08,0,0,0-.3-1.3A9.25,9.25,0,0,1,85,111.23a19.74,19.74,0,0,1-5.23,4.28A14.2,14.2,0,0,1,77,116.77,10.39,10.39,0,0,0,84.81,113.6Z"/><path d="M145.86,110.93a12.92,12.92,0,0,1,4.13.81,3.38,3.38,0,0,1,2.21,3.17v.4a5.75,5.75,0,0,1-4.53,6.08,32.87,32.87,0,0,1-4.52.76c-2.15.27-3.66.5-4.53.7q-2.46.66-2.46,2.82v1.16c.13.8,1,1.34,2.71,1.61a11.59,11.59,0,0,0,1.16,0c.53,0,1.17,0,1.91,0,1.17,0,2.15-.05,2.92-.05h.95q4.68.24,5,2.81a22.08,22.08,0,0,1,.15,2.52q0,8.25-7.59,11.61-5.34,2.41-14.94,2.42c-.84,0-1.69,0-2.56-.05q-9.25-.25-12.33-14-1.56-6.9-1.55-21.23v-2.21q0-5.64.4-9.1.9-9.61,4.73-14.24t13-7.64a25.3,25.3,0,0,1,7.75-1q1.76,0,3.72.15,7.54.47,11.51,2.62,2.92,1.6,4.38,5.88a14.39,14.39,0,0,1,.8,4.68,13.93,13.93,0,0,1-.8,4.63q-1.76,4.88-4.68,6.53a8.38,8.38,0,0,1-4.27,1,17,17,0,0,1-3.52-.4,20.15,20.15,0,0,0-4.28-.61,4,4,0,0,0-2.11.46,3.69,3.69,0,0,0-1.71,3.32,3.76,3.76,0,0,0,.81,2.66C138.5,110.05,141.24,110.63,145.86,110.93Zm-29-13a33.38,33.38,0,0,1,1.31-4.33q2.56-5.92,9.81-8.95c.2-.1,1.41-.54,3.62-1.31a22.86,22.86,0,0,0,3.17-1.31,22.8,22.8,0,0,0-14,4.88q-4.89,3.63-4.88,14A10.11,10.11,0,0,0,116.84,98Z"/><path d="M213.2,139.85a6.48,6.48,0,0,1,.05.86,6.15,6.15,0,0,1-2,4.57,7.56,7.56,0,0,1-5.43,2.27,9.05,9.05,0,0,1-6.39-2.67c-2.14-2.08-3.64-5.11-4.47-9.1-.77-3.62-2.45-5.47-5-5.53h-.2c-2.49,0-4.56,1.65-6.24,5q-3.32,6.59-3.32,6.63l0-.05a12.07,12.07,0,0,1-4.88,4.68,9.77,9.77,0,0,1-4.57,1.21,9.15,9.15,0,0,1-1.26-.1,6,6,0,0,1-4.53-2.77,8.29,8.29,0,0,1-1.21-4.58,15.84,15.84,0,0,1,.21-2.51q.69-4.32,2.06-9.86c1.21-4.83,2.19-8.58,3-11.26q1.8-6,3.31-10.26,8.2-23.39,15.85-27a6.53,6.53,0,0,1,2.66-.6q5,0,9.56,8.75Q209.18,104.5,213.2,139.85ZM168,136.93s-.05,0-.05-.05q0-1,4-14.88,2.37-8.4,4.68-14.64,6-16.24,12.12-22.33c.87-.84,1.31-1.52,1.31-2.06a1,1,0,0,0-.05-.3,2.94,2.94,0,0,0-.51,0q-2.76,0-6.73,7a116,116,0,0,0-7.55,17.45q-7.44,20.93-7.44,27.86A6.44,6.44,0,0,0,168,136.93Zm24.94-22.63q-.6-3.21-1.1-5.13c-.67-2.51-1.33-3.77-2-3.77-.47,0-.91.5-1.31,1.51s-1.21,4-2.31,9.3a8.87,8.87,0,0,0-.16,1.16v.15c0,.14.17.2.41.2a1.93,1.93,0,0,0,.45,0,9.27,9.27,0,0,1,2.06-.25,8.55,8.55,0,0,1,2.26.3c.31.1.84.24,1.61.41l.51.15h.05a.13.13,0,0,0,.15-.15V118C193.55,117.86,193.34,116.62,192.93,114.3Zm-1.4,7a14.74,14.74,0,0,0,1.71.1c1.67,0,2.73-.38,3.16-1.15a2.34,2.34,0,0,0,.26-1.16,11.93,11.93,0,0,0-1-4,5.78,5.78,0,0,1,0,.75,6.62,6.62,0,0,1-.45,2.42A4.59,4.59,0,0,1,191.53,121.29Z"/><path d="M272.65,92.17a28.08,28.08,0,0,1-6.34,10.62q-9.45,10.6-20.27,13.83,10.26,2.46,16,7.54,6.58,5.79,9,10.06,3.82,6.84-1.71,11-4.49,3.33-10.41,1.31a28.22,28.22,0,0,1-9.46-6,51.24,51.24,0,0,1-6.59-7.9c-.23.8-.58,2.7-1.05,5.68a23.53,23.53,0,0,1-1.61,5.58,7.4,7.4,0,0,1-3.52,3.63,8.17,8.17,0,0,1-4.68.75,9.22,9.22,0,0,1-4.48-1.76,7.24,7.24,0,0,1-2.71-3.87q-1.51-5.43-2.21-21-.81-17.46.7-28.67,1.16-8.25,5.53-12.32a9.78,9.78,0,0,1,8.75-2.82q6.24,1.11,7.45,6.94.5,2.37.3,15.49c.23-.33.73-1.16,1.51-2.46,1-1.68,1.76-3,2.36-4a74.8,74.8,0,0,1,6.64-9.35q9.56-11.22,15.24-2.92A12.47,12.47,0,0,1,272.65,92.17Zm-43.86-4.92a16.92,16.92,0,0,1,4.83-5c-1.11-.81-2.43-.32-4,1.45a12,12,0,0,0-2.72,6.54A31,31,0,0,0,228.79,87.25Zm27.76.35c-.9,1.17-2,2.76-3.37,4.78s-2.11,3.1-2.41,3.47c.1-.11-.77.68-2.62,2.36C247,99.28,246.6,100,247,100.47q1.2,1.31,5.33-4.47,5.88-8.2,7-9.26c2.82-2.85,4.22-4.31,4.22-4.37Q261.13,81.67,256.55,87.6Z"/></g></g></svg>